<?xml version="1.0" encoding="utf-8"?>
<!DOCTYPE svg PUBLIC "-//W3C//DTD SVG 1.1//EN" "http://www.w3.org/Graphics/SVG/1.1/DTD/svg11.dtd">
<svg version="1.1" baseProfile="full"
 xmlns="http://www.w3.org/2000/svg"
 xmlns:xlink="http://www.w3.org/1999/xlink"
 xmlns:ev="http://www.w3.org/2001/xml-events" 
  height="60px" 
  width="58px" 
>
<path fill="rgb( 255, 255, 255 )"
 d="M30.644,58.5389999999998 C30.644,58.5389999999998 56.1120000000001,33.3109999999997 56.1120000000001,33.3109999999997 C57.261,32.1689999999999 57.268,30.3100000000004 56.127,29.1639999999998 C56.127,29.1639999999998 50.0599999999999,23.0649999999996 50.0599999999999,23.0649999999996 C49.5039999999999,22.5069999999996 48.7629999999999,22.1959999999999 47.9749999999999,22.1959999999999 C47.1959999999999,22.1959999999999 46.46,22.5010000000002 45.9079999999999,23.0519999999997 C45.9079999999999,23.0519999999997 36.3530000000001,32.5129999999999 36.3530000000001,32.5129999999999 C36.3530000000001,32.5129999999999 36.3530000000001,2.98400000000038 36.3530000000001,2.98400000000038 C36.3530000000001,2.19899999999961 36.049,1.46399999999994 35.4929999999999,0.90899999999965 C34.9400000000001,0.35800000000017 34.203,0.05199999999968 33.4179999999999,0.05299999999988 C33.4179999999999,0.05299999999988 24.8040000000001,0.05299999999988 24.8040000000001,0.05299999999988 C23.2339999999999,0.05100000000039 21.866,1.41600000000017 21.8679999999999,2.98400000000038 C21.8679999999999,2.98400000000038 21.8679999999999,32.5129999999999 21.8679999999999,32.5129999999999 C21.8679999999999,32.5129999999999 12.3130000000001,23.0519999999997 12.3130000000001,23.0519999999997 C11.761,22.5010000000002 11.0250000000001,22.1959999999999 10.2460000000001,22.1959999999999 C9.45800000000008,22.1959999999999 8.7170000000001,22.5069999999996 8.16100000000006,23.0649999999996 C8.16100000000006,23.0649999999996 2.09400000000005,29.1639999999998 2.09400000000005,29.1639999999998 C0.95399999999995,30.3100000000004 0.96000000000004,32.1689999999999 2.1099999999999,33.3109999999997 C2.1099999999999,33.3109999999997 27.577,58.5389999999998 27.577,58.5389999999998 C27.989,58.9470000000001 28.549,59.1499999999996 29.1110000000001,59.1570000000002 C29.673,59.1499999999996 30.232,58.9470000000001 30.644,58.5389999999998 Z "/>
</svg>
