<?xml version="1.0" encoding="utf-8"?>
<!DOCTYPE svg PUBLIC "-//W3C//DTD SVG 1.1//EN" "http://www.w3.org/Graphics/SVG/1.1/DTD/svg11.dtd">
<svg version="1.1" baseProfile="full"
 xmlns="http://www.w3.org/2000/svg"
 xmlns:xlink="http://www.w3.org/1999/xlink"
 xmlns:ev="http://www.w3.org/2001/xml-events" 
  height="47px" 
  width="46px" 
>
<path fill="rgb( 8, 188, 248 )"
 d="M23,47 C10.297,47 0,36.7019999999993 0,23.9989999999998 C0,11.2980000000007 10.297,0.9989999999998 23,0.9989999999998 C35.703,0.9989999999998 46,11.2980000000007 46,23.9989999999998 C46,36.7019999999993 35.703,47 23,47 ZM36.118,27.7029999999995 C36.118,27.7029999999995 24.654,13.3670000000002 24.654,13.3670000000002 C24.322,12.9449999999997 23.837,12.6700000000001 23.305,12.6000000000004 C23.305,12.6000000000004 14.757,11.5 14.757,11.5 C14.212,11.4300000000003 13.661,11.5820000000003 13.229,11.9200000000001 C12.798,12.2600000000002 12.52,12.7579999999998 12.459,13.3050000000003 C12.459,13.3050000000003 11.502,21.8690000000006 11.502,21.8690000000006 C11.443,22.402 11.595,22.9390000000003 11.927,23.3610000000008 C11.927,23.3610000000008 23.39,37.6990000000005 23.39,37.6990000000005 C24.089,38.5879999999997 25.377,38.7450000000008 26.267,38.0450000000001 C26.267,38.0450000000001 35.772,30.5810000000001 35.772,30.5810000000001 C36.661,29.8829999999998 36.816,28.5939999999991 36.118,27.7029999999995 ZM15.828,18.2139999999999 C15.199,17.4140000000007 15.338,16.2549999999992 16.139,15.625 C16.941,14.9979999999996 18.099,15.1360000000004 18.728,15.9369999999999 C19.357,16.7379999999994 19.218,17.8970000000008 18.417,18.5259999999998 C17.616,19.1550000000007 16.457,19.0159999999996 15.828,18.2139999999999 Z "/>
</svg>
