<?xml version="1.0" encoding="utf-8"?>
<!DOCTYPE svg PUBLIC "-//W3C//DTD SVG 1.1//EN" "http://www.w3.org/Graphics/SVG/1.1/DTD/svg11.dtd">
<svg version="1.1" baseProfile="full"
 xmlns="http://www.w3.org/2000/svg"
 xmlns:xlink="http://www.w3.org/1999/xlink"
 xmlns:ev="http://www.w3.org/2001/xml-events" 
  height="28px" 
  width="44px" 
>
<path fill="rgb( 96, 95, 95 )"
 d="M38.3679999999999,27.9789999999994 C38.3679999999999,27.9789999999994 5.76199999999994,27.9789999999994 5.76199999999994,27.9789999999994 C3.0619999999999,27.9789999999994 0.87200000000007,25.8310000000001 0.87200000000007,23.1810000000005 C0.87200000000007,23.1810000000005 0.87200000000007,12.1460000000006 0.87200000000007,12.1460000000006 C0.87200000000007,12.1460000000006 43.26,12.1460000000006 43.26,12.1460000000006 C43.26,12.1460000000006 43.26,23.1810000000005 43.26,23.1810000000005 C43.26,25.8310000000001 41.0699999999999,27.9789999999994 38.3679999999999,27.9789999999994 ZM0.87200000000007,5.58699999999953 C0.87200000000007,2.9369999999999 3.0619999999999,0.79000000000087 5.7639999999999,0.79000000000087 C5.7639999999999,0.79000000000087 38.3699999999999,0.79000000000087 38.3699999999999,0.79000000000087 C41.0699999999999,0.79000000000087 43.26,2.9369999999999 43.26,5.58699999999953 C43.26,5.58699999999953 43.26,6.625 43.26,6.625 C43.26,6.625 0.87200000000007,6.625 0.87200000000007,6.625 C0.87200000000007,6.625 0.87200000000007,5.58699999999953 0.87200000000007,5.58699999999953 Z "/>
</svg>
