<?xml version="1.0" encoding="utf-8"?>
<!DOCTYPE svg PUBLIC "-//W3C//DTD SVG 1.1//EN" "http://www.w3.org/Graphics/SVG/1.1/DTD/svg11.dtd">
<svg version="1.1" baseProfile="full"
 xmlns="http://www.w3.org/2000/svg"
 xmlns:xlink="http://www.w3.org/1999/xlink"
 xmlns:ev="http://www.w3.org/2001/xml-events" 
  height="19px" 
  width="10px" 
>
<path fill="rgb( 255, 255, 255 )"
 d="M9.33299999999997,6.19100000000003 C9.33299999999997,6.19100000000003 6.29700000000003,6.19100000000003 6.29700000000003,6.19100000000003 C6.29700000000003,6.19100000000003 6.29700000000003,4.24800000000005 6.29700000000003,4.24800000000005 C6.29700000000003,3.51700000000005 6.79300000000001,3.34699999999998 7.14200000000005,3.34699999999998 C7.49000000000001,3.34699999999998 9.28399999999999,3.34699999999998 9.28399999999999,3.34699999999998 C9.28399999999999,3.34699999999998 9.28399999999999,0.13799999999992 9.28399999999999,0.13799999999992 C9.28399999999999,0.13799999999992 6.33399999999995,0.12699999999995 6.33399999999995,0.12699999999995 C3.05799999999999,0.12699999999995 2.31299999999999,2.51999999999998 2.31299999999999,4.05099999999993 C2.31299999999999,4.05099999999993 2.31299999999999,6.19100000000003 2.31299999999999,6.19100000000003 C2.31299999999999,6.19100000000003 0.41899999999998,6.19100000000003 0.41899999999998,6.19100000000003 C0.41899999999998,6.19100000000003 0.41899999999998,9.49600000000009 0.41899999999998,9.49600000000009 C0.41899999999998,9.49600000000009 2.31299999999999,9.49600000000009 2.31299999999999,9.49600000000009 C2.31299999999999,13.74 2.31299999999999,18.8510000000001 2.31299999999999,18.8510000000001 C2.31299999999999,18.8510000000001 6.29700000000003,18.8510000000001 6.29700000000003,18.8510000000001 C6.29700000000003,18.8510000000001 6.29700000000003,13.6880000000001 6.29700000000003,9.49600000000009 C6.29700000000003,9.49600000000009 8.98500000000001,9.49600000000009 8.98500000000001,9.49600000000009 C8.98500000000001,9.49600000000009 9.33299999999997,6.19100000000003 9.33299999999997,6.19100000000003 Z "/>
</svg>
