<?xml version="1.0" encoding="utf-8"?>
<!DOCTYPE svg PUBLIC "-//W3C//DTD SVG 1.1//EN" "http://www.w3.org/Graphics/SVG/1.1/DTD/svg11.dtd">
<svg version="1.1" baseProfile="full"
 xmlns="http://www.w3.org/2000/svg"
 xmlns:xlink="http://www.w3.org/1999/xlink"
 xmlns:ev="http://www.w3.org/2001/xml-events" 
  height="18px" 
  width="10px" 
>
<path fill="rgb( 164, 175, 180 )"
 d="M9.01099999999997,5.82899999999995 C9.01099999999997,5.82899999999995 6.27999999999997,5.82899999999995 6.27999999999997,5.82899999999995 C6.27999999999997,5.82899999999995 6.27999999999997,3.96100000000001 6.27999999999997,3.96100000000001 C6.27999999999997,3.25900000000001 6.726,3.096 7.03999999999996,3.096 C7.35299999999995,3.096 8.96699999999998,3.096 8.96699999999998,3.096 C8.96699999999998,3.096 8.96699999999998,0.01099999999997 8.96699999999998,0.01099999999997 C8.96699999999998,0.01099999999997 6.31299999999999,0 6.31299999999999,0 C3.36800000000005,0 2.69799999999998,2.30099999999993 2.69799999999998,3.77299999999991 C2.69799999999998,3.77299999999991 2.69799999999998,5.82899999999995 2.69799999999998,5.82899999999995 C2.69799999999998,5.82899999999995 0.99400000000003,5.82899999999995 0.99400000000003,5.82899999999995 C0.99400000000003,5.82899999999995 0.99400000000003,9.00600000000009 0.99400000000003,9.00600000000009 C0.99400000000003,9.00600000000009 2.69799999999998,9.00600000000009 2.69799999999998,9.00600000000009 C2.69799999999998,13.085 2.69799999999998,18 2.69799999999998,18 C2.69799999999998,18 6.27999999999997,18 6.27999999999997,18 C6.27999999999997,18 6.27999999999997,13.038 6.27999999999997,9.00600000000009 C6.27999999999997,9.00600000000009 8.69799999999998,9.00600000000009 8.69799999999998,9.00600000000009 C8.69799999999998,9.00600000000009 9.01099999999997,5.82899999999995 9.01099999999997,5.82899999999995 Z "/>
</svg>
