<?xml version="1.0" encoding="utf-8"?>
<!DOCTYPE svg PUBLIC "-//W3C//DTD SVG 1.1//EN" "http://www.w3.org/Graphics/SVG/1.1/DTD/svg11.dtd">
<svg version="1.1" baseProfile="full"
 xmlns="http://www.w3.org/2000/svg"
 xmlns:xlink="http://www.w3.org/1999/xlink"
 xmlns:ev="http://www.w3.org/2001/xml-events" 
  height="46px" 
  width="46px" 
>
<path fill="rgb( 255, 185, 6 )"
 d="M23,46 C10.297,46 0,35.7029999999995 0,23 C0,10.2980000000007 10.297,0 23,0 C35.703,0 46,10.2980000000007 46,23 C46,35.7029999999995 35.703,46 23,46 ZM38.992,28.8950000000004 C38.93,28.8299999999999 38.844,28.7939999999999 38.755,28.7939999999999 C38.755,28.7939999999999 30.524,28.7939999999999 30.524,28.7939999999999 C30.524,28.7939999999999 26.728,28.7939999999999 26.728,28.7939999999999 C26.728,28.7939999999999 26.728,28.1499999999996 26.728,28.1499999999996 C26.792,28.1290000000008 26.855,28.107 26.913,28.0740000000005 C27.065,27.9860000000008 28.998,26.8670000000002 30.807,24.857 C31.609,25.4699999999993 32.609,25.8379999999997 33.697,25.8379999999997 C36.332,25.8379999999997 38.469,23.7019999999993 38.469,21.0660000000007 C38.469,18.5300000000007 36.489,16.4609999999993 33.992,16.3089999999993 C33.982,14.4110000000001 32.683,13.9079999999994 31.99,13.9079999999994 C31.99,13.9079999999994 22.718,13.9079999999994 22.718,13.9079999999994 C22.699,13.9079999999994 22.681,13.9110000000001 22.662,13.9120000000003 C22.643,13.9110000000001 22.625,13.9079999999994 22.605,13.9079999999994 C22.605,13.9079999999994 13.33,13.9079999999994 13.33,13.9079999999994 C12.638,13.9079999999994 11.331,14.4130000000005 11.331,16.3289999999997 C11.331,16.3289999999997 11.331,17.2700000000004 11.331,17.2700000000004 C11.331,23.9770000000008 18.121,27.9089999999997 18.41,28.0740000000005 C18.468,28.107 18.531,28.1280000000006 18.594,28.1489999999994 C18.594,28.1489999999994 18.594,28.7939999999999 18.594,28.7939999999999 C18.594,28.7939999999999 15.476,28.7939999999999 15.476,28.7939999999999 C15.476,28.7939999999999 7.245,28.7939999999999 7.245,28.7939999999999 C7.15600000000001,28.7939999999999 7.06999999999999,28.8299999999999 7.00799999999998,28.8950000000004 C6.947,28.9619999999995 6.92099999999999,29.0499999999993 6.92099999999999,29.1389999999992 C6.92099999999999,30.8549999999996 10.076,32.0339999999997 11.323,32.0910000000003 C11.323,32.0910000000003 15.476,32.0910000000003 15.476,32.0910000000003 C15.476,32.0910000000003 30.524,32.0910000000003 30.524,32.0910000000003 C30.524,32.0910000000003 34.677,32.0910000000003 34.677,32.0910000000003 C34.682,32.0910000000003 34.687,32.0910000000003 34.692,32.0910000000003 C35.924,32.0339999999997 39.079,30.5010000000002 39.079,29.1389999999992 C39.079,29.0499999999993 39.053,28.9619999999995 38.992,28.8950000000004 ZM33.697,18.652 C35.03,18.652 36.11,19.7340000000004 36.11,21.0660000000007 C36.11,22.3989999999994 35.03,23.4789999999994 33.697,23.4789999999994 C32.363,23.4789999999994 31.283,22.3989999999994 31.283,21.0660000000007 C31.283,19.7340000000004 32.363,18.652 33.697,18.652 Z "/>
</svg>
