<?xml version="1.0" encoding="utf-8"?>
<!DOCTYPE svg PUBLIC "-//W3C//DTD SVG 1.1//EN" "http://www.w3.org/Graphics/SVG/1.1/DTD/svg11.dtd">
<svg version="1.1" baseProfile="full"
 xmlns="http://www.w3.org/2000/svg"
 xmlns:xlink="http://www.w3.org/1999/xlink"
 xmlns:ev="http://www.w3.org/2001/xml-events" 
  height="48px" 
  width="46px" 
>
<path fill="rgb( 238, 5, 117 )"
 d="M23,47.0010000000002 C10.298,47.0010000000002 0,36.7019999999993 0,24.0010000000002 C0,11.2980000000007 10.298,0.9989999999998 23,0.9989999999998 C35.702,0.9989999999998 46,11.2980000000007 46,24.0010000000002 C46,36.7019999999993 35.702,47.0010000000002 23,47.0010000000002 ZM35.042,16.2340000000004 C31.732,11.8739999999998 27.344,9.97600000000057 21.936,10.7980000000007 C15.439,11.7870000000003 10.707,17.4500000000007 10.716,24.2739999999994 C10.729,26.4060000000009 11.319,28.6640000000007 12.541,30.7360000000008 C15.346,35.4930000000004 20.513,38.018 25.993,37.2540000000008 C29.75,36.7309999999998 32.744,34.8729999999996 34.997,31.8220000000001 C35.476,31.1759999999995 35.279,30.5169999999998 34.53,30.2060000000001 C32.42,29.3310000000001 30.308,28.4609999999993 28.198,27.5869999999995 C25.997,26.6790000000001 23.797,25.768 21.595,24.8600000000006 C21.358,24.7620000000006 21.16,24.6409999999996 21.157,24.3469999999998 C21.154,24.0540000000001 21.347,23.9240000000009 21.584,23.8240000000005 C21.807,23.7289999999994 22.024,23.6229999999996 22.244,23.5229999999992 C26.357,21.6229999999996 30.471,19.723 34.584,17.8250000000007 C35.295,17.4959999999992 35.496,16.8330000000005 35.042,16.2340000000004 ZM22.941,18.5169999999998 C21.887,18.5020000000004 21.05,17.6489999999994 21.055,16.5949999999993 C21.06,15.5439999999999 21.913,14.6980000000003 22.967,14.6990000000005 C24.007,14.7000000000007 24.858,15.5669999999991 24.853,16.6209999999992 C24.848,17.6700000000001 23.981,18.5300000000007 22.941,18.5169999999998 Z "/>
</svg>
