<?xml version="1.0" encoding="utf-8"?>
<!DOCTYPE svg PUBLIC "-//W3C//DTD SVG 1.1//EN" "http://www.w3.org/Graphics/SVG/1.1/DTD/svg11.dtd">
<svg version="1.1" baseProfile="full"
 xmlns="http://www.w3.org/2000/svg"
 xmlns:xlink="http://www.w3.org/1999/xlink"
 xmlns:ev="http://www.w3.org/2001/xml-events" 
  height="46px" 
  width="46px" 
>
<path fill="rgb( 255, 72, 0 )"
 d="M23,0.0010000000002 C10.297,0.0010000000002 0,10.2970000000005 0,23.0010000000002 C0,35.7039999999997 10.297,46 23,46 C35.702,46 46,35.7039999999997 46,23.0010000000002 C46,10.2970000000005 35.702,0.0010000000002 23,0.0010000000002 ZM21.792,35.5769999999993 C21.792,35.5769999999993 11.43,35.5769999999993 11.43,35.5769999999993 C10.876,35.5769999999993 10.425,35.1260000000002 10.425,34.5720000000001 C10.425,34.5720000000001 10.425,24.2099999999991 10.425,24.2099999999991 C10.425,24.2099999999991 16.437,24.2099999999991 16.437,24.2099999999991 C15.176,25.7330000000002 15.214,27.9709999999995 16.613,29.3690000000006 C17.331,30.0889999999999 18.295,30.4789999999994 19.323,30.4670000000006 C20.236,30.4599999999991 21.093,30.1200000000008 21.792,29.5319999999992 C21.792,29.5319999999992 21.792,35.5769999999993 21.792,35.5769999999993 ZM18.444,25.3559999999998 C19.235,24.5679999999993 20.34,24.1759999999995 21.62,24.2600000000002 C21.62,24.2600000000002 21.75,24.2669999999998 21.75,24.2669999999998 C21.75,24.2669999999998 21.762,24.3960000000006 21.762,24.3960000000006 C21.865,25.5949999999993 21.46,26.7479999999996 20.645,27.5619999999999 C20.363,27.8449999999993 19.961,28.0049999999992 19.545,28.0049999999992 C19.128,28.0049999999992 18.727,27.8449999999993 18.444,27.5619999999999 C18.149,27.268 17.989,26.8780000000006 17.989,26.4580000000005 C17.989,26.0400000000009 18.149,25.6499999999996 18.444,25.3559999999998 ZM17.989,19.5480000000007 C17.989,19.1299999999992 18.149,18.7399999999998 18.444,18.4449999999997 C18.738,18.1509999999998 19.128,17.9899999999998 19.545,17.9899999999998 C19.961,17.9899999999998 20.351,18.1509999999998 20.645,18.4449999999997 C21.452,19.2569999999996 21.857,20.4079999999994 21.758,21.6110000000008 C21.758,21.6110000000008 21.746,21.7399999999998 21.746,21.7399999999998 C21.746,21.7399999999998 21.616,21.7479999999996 21.616,21.7479999999996 C21.505,21.7559999999994 21.395,21.7600000000002 21.288,21.7600000000002 C20.152,21.7600000000002 19.17,21.3770000000004 18.444,20.6470000000008 C18.149,20.3529999999992 17.989,19.9619999999995 17.989,19.5480000000007 ZM21.792,16.4359999999997 C20.298,15.1970000000001 17.97,15.232 16.613,16.5920000000006 C15.202,18.0020000000004 15.172,20.2649999999994 16.468,21.7900000000009 C16.468,21.7900000000009 10.425,21.7900000000009 10.425,21.7900000000009 C10.425,21.7900000000009 10.425,11.4279999999999 10.425,11.4279999999999 C10.425,10.875 10.876,10.4220000000005 11.43,10.4220000000005 C11.43,10.4220000000005 21.792,10.4220000000005 21.792,10.4220000000005 C21.792,10.4220000000005 21.792,16.4359999999997 21.792,16.4359999999997 ZM35.575,34.5640000000003 C35.575,35.1170000000002 35.124,35.5709999999999 34.57,35.5709999999999 C34.57,35.5709999999999 24.208,35.5709999999999 24.208,35.5709999999999 C24.208,35.5709999999999 24.208,29.5280000000002 24.208,29.5280000000002 C24.907,30.1119999999992 25.764,30.4509999999991 26.677,30.4629999999997 C27.705,30.4750000000004 28.669,30.0840000000007 29.387,29.366 C30.786,27.9709999999995 30.828,25.7309999999998 29.563,24.2060000000001 C29.563,24.2060000000001 35.575,24.2060000000001 35.575,24.2060000000001 C35.575,24.2060000000001 35.575,34.5640000000003 35.575,34.5640000000003 ZM27.552,20.6509999999998 C26.83,21.3770000000004 25.836,21.7600000000002 24.686,21.7600000000002 C24.586,21.7600000000002 24.483,21.7600000000002 24.38,21.7520000000004 C24.38,21.7520000000004 24.25,21.7440000000006 24.25,21.7440000000006 C24.25,21.7440000000006 24.238,21.6149999999998 24.238,21.6149999999998 C24.135,20.4179999999997 24.54,19.2630000000008 25.355,18.4490000000005 C25.637,18.1669999999995 26.035,18.0069999999996 26.455,18.0069999999996 C26.876,18.0069999999996 27.273,18.1669999999995 27.556,18.4490000000005 C28.164,19.0570000000007 28.164,20.0429999999997 27.552,20.6509999999998 ZM27.556,27.5619999999999 C27.273,27.8449999999993 26.876,28.0049999999992 26.455,28.0049999999992 C26.035,28.0049999999992 25.637,27.8449999999993 25.355,27.5619999999999 C24.548,26.7559999999994 24.143,25.6020000000008 24.242,24.3999999999996 C24.242,24.3999999999996 24.254,24.2710000000006 24.254,24.2710000000006 C24.254,24.2710000000006 24.384,24.2639999999992 24.384,24.2639999999992 C25.657,24.1759999999995 26.757,24.5609999999997 27.556,25.3590000000004 C28.164,25.9689999999991 28.164,26.9539999999997 27.556,27.5619999999999 ZM35.575,21.7900000000009 C35.575,21.7900000000009 29.532,21.7900000000009 29.532,21.7900000000009 C30.828,20.2649999999994 30.798,18.0020000000004 29.387,16.5920000000006 C28.03,15.2340000000004 25.702,15.2019999999993 24.208,16.4359999999997 C24.208,16.4359999999997 24.208,10.4220000000005 24.208,10.4220000000005 C24.208,10.4220000000005 34.57,10.4220000000005 34.57,10.4220000000005 C35.124,10.4220000000005 35.575,10.875 35.575,11.4279999999999 C35.575,11.4279999999999 35.575,21.7900000000009 35.575,21.7900000000009 Z "/>
</svg>
