<?xml version="1.0" encoding="utf-8"?>
<!DOCTYPE svg PUBLIC "-//W3C//DTD SVG 1.1//EN" "http://www.w3.org/Graphics/SVG/1.1/DTD/svg11.dtd">
<svg version="1.1" baseProfile="full"
 xmlns="http://www.w3.org/2000/svg"
 xmlns:xlink="http://www.w3.org/1999/xlink"
 xmlns:ev="http://www.w3.org/2001/xml-events" 
  height="41px" 
  width="28px" 
>
<path fill="rgb( 96, 95, 95 )"
 d="M26.965,23.1400000000003 C24.199,28.0730000000003 21.428,33.0020000000004 18.659,37.9350000000004 C17.866,39.348 16.661,40.0150000000003 15.063,40.0110000000004 C12.172,40.0039999999999 9.28199999999998,40.0100000000002 6.392,40.0100000000002 C4.14400000000001,40.0100000000002 2.62299999999999,38.5789999999997 2.36700000000002,36.3230000000003 C2.108,34.0460000000003 1.77300000000002,31.7780000000002 1.47399999999999,29.5020000000004 C1.28300000000002,28.0590000000002 1.077,26.6170000000002 0.91500000000002,25.1689999999999 C0.743,23.6409999999996 1.70600000000002,22.0839999999998 3.19499999999999,21.4179999999997 C5.82499999999999,20.2389999999996 8.45699999999999,19.0590000000002 11.091,17.8909999999996 C11.364,17.768 11.514,17.6400000000003 11.536,17.2960000000003 C11.661,15.299 11.819,13.3050000000003 11.97,11.3090000000002 C12.143,9.02000000000044 12.321,6.72999999999956 12.496,4.44400000000041 C12.534,3.94700000000012 12.574,3.45300000000043 12.605,2.95700000000033 C12.71,1.27900000000045 13.871,0.98599999999988 14.473,0.98999999999978 C14.812,0.99600000000009 16.287,1.08700000000044 16.394,3.13299999999981 C16.491,5.98899999999958 16.59,8.84400000000005 16.695,11.6970000000001 C16.781,14.0389999999998 16.878,16.3819999999996 16.969,18.723 C17.032,20.3199999999997 17.09,21.9179999999997 17.156,23.5140000000001 C17.196,24.4809999999998 17.68,25.1760000000004 18.483,25.442 C19.293,25.7079999999996 20.048,25.4300000000003 20.681,24.6790000000001 C21.745,23.4120000000003 22.817,22.1530000000002 23.903,20.9049999999997 C24.62,20.0810000000001 25.655,19.933 26.462,20.5010000000002 C27.313,21.1000000000004 27.522,22.1459999999997 26.965,23.1400000000003 Z "/>
</svg>
