<?xml version="1.0" encoding="utf-8"?>
<!DOCTYPE svg PUBLIC "-//W3C//DTD SVG 1.1//EN" "http://www.w3.org/Graphics/SVG/1.1/DTD/svg11.dtd">
<svg version="1.1" baseProfile="full"
 xmlns="http://www.w3.org/2000/svg"
 xmlns:xlink="http://www.w3.org/1999/xlink"
 xmlns:ev="http://www.w3.org/2001/xml-events" 
  height="20px" 
  width="19px" 
>
<path fill="rgb( 255, 255, 255 )"
 d="M14.269,19.79 C14.269,19.79 14.269,11.7180000000001 14.269,11.7180000000001 C14.269,10.395 13.525,9.70100000000002 12.2430000000001,9.70100000000002 C10.929,9.70100000000002 10.217,10.4100000000001 10.217,11.7180000000001 C10.217,11.7180000000001 10.217,19.79 10.217,19.79 C10.217,19.79 6.16600000000005,19.79 6.16600000000005,19.79 C6.16600000000005,19.79 6.16600000000005,5.66599999999994 6.16600000000005,5.66599999999994 C6.16600000000005,5.66599999999994 10.217,5.66599999999994 10.217,5.66599999999994 C10.217,5.66599999999994 10.217,7.68299999999999 10.217,7.68299999999999 C10.448,6.69100000000003 10.934,5.66599999999994 13.761,5.66599999999994 C17.792,5.66599999999994 18.3200000000001,8.69100000000003 18.3200000000001,12.7270000000001 C18.3200000000001,12.7270000000001 18.3200000000001,19.79 18.3200000000001,19.79 C18.3200000000001,19.79 14.269,19.79 14.269,19.79 ZM0.08799999999997,5.66599999999994 C0.08799999999997,5.66599999999994 4.13999999999999,5.66599999999994 4.13999999999999,5.66599999999994 C4.13999999999999,5.66599999999994 4.13999999999999,19.79 4.13999999999999,19.79 C4.13999999999999,19.79 0.08799999999997,19.79 0.08799999999997,19.79 C0.08799999999997,19.79 0.08799999999997,5.66599999999994 0.08799999999997,5.66599999999994 ZM2.11400000000003,4.65699999999993 C0.995,4.65699999999993 0.08799999999997,3.75399999999991 0.08799999999997,2.63799999999992 C0.08799999999997,1.52399999999989 0.995,0.61999999999989 2.11400000000003,0.61999999999989 C3.23299999999995,0.61999999999989 4.13999999999999,1.52399999999989 4.13999999999999,2.63799999999992 C4.13999999999999,3.75399999999991 3.23299999999995,4.65699999999993 2.11400000000003,4.65699999999993 Z "/>
</svg>
