<?xml version="1.0" encoding="utf-8"?>
<!DOCTYPE svg PUBLIC "-//W3C//DTD SVG 1.1//EN" "http://www.w3.org/Graphics/SVG/1.1/DTD/svg11.dtd">
<svg version="1.1" baseProfile="full"
 xmlns="http://www.w3.org/2000/svg"
 xmlns:xlink="http://www.w3.org/1999/xlink"
 xmlns:ev="http://www.w3.org/2001/xml-events" 
  height="24px" 
  width="46px" 
>
<path fill="rgb( 96, 95, 95 )"
 d="M27.264,10.4520000000002 C26.239,9.17000000000007 25.234,7.91399999999976 24.218,6.64199999999983 C25.429,5.38900000000012 26.581,4.15499999999975 27.983,3.17900000000009 C32.141,0.29200000000037 38.909,1.04299999999967 42.213,6.2510000000002 C45.775,11.8670000000002 43.692,20.2049999999999 36.404,22.2110000000002 C31.787,23.4830000000002 27.565,22.4750000000004 24.114,19.0609999999997 C22.642,17.6059999999998 21.373,15.9449999999997 20.031,14.3599999999997 C18.91,13.0370000000003 17.827,11.6790000000001 16.708,10.3530000000001 C15.695,9.15200000000004 14.591,8.05400000000009 13.024,7.58500000000004 C11.018,6.98300000000017 9.19799999999998,7.28700000000026 7.76799999999997,8.88400000000001 C6.33499999999998,10.4840000000004 6.01799999999997,12.3519999999999 6.84199999999998,14.3440000000001 C7.93900000000002,16.9960000000001 11.383,18.0460000000003 13.828,16.4669999999996 C14.494,16.0360000000001 15.06,15.4489999999996 15.663,14.9219999999996 C16.108,14.5339999999997 16.539,14.1310000000003 16.999,13.7129999999997 C17.565,14.3879999999999 18.096,15.0219999999999 18.623,15.6589999999997 C19.141,16.2870000000003 19.654,16.915 20.197,17.5789999999997 C18.001,19.7110000000002 15.88,21.8450000000003 12.744,22.5029999999997 C7.05099999999999,23.6940000000004 1.21899999999999,19.5969999999998 0.49000000000001,13.8429999999998 C0.101,10.7659999999996 0.66800000000001,7.90099999999984 2.637,5.42799999999988 C4.54300000000001,3.03700000000026 7.07900000000001,1.79799999999977 10.128,1.57099999999991 C14.687,1.22999999999956 18.396,2.96500000000015 21.349,6.30599999999959 C23.044,8.22400000000016 24.513,10.3419999999996 26.128,12.3320000000003 C26.976,13.3760000000002 27.828,14.4499999999998 28.837,15.326 C30.611,16.8720000000003 32.689,17.3410000000003 34.938,16.424 C37.08,15.5469999999996 38.174,13.4989999999998 37.797,11.21 C37.415,8.89300000000003 35.616,7.1869999999999 33.359,7.02900000000045 C32.349,6.96100000000024 31.395,7.22000000000025 30.56,7.76900000000023 C29.782,8.28099999999995 29.061,8.88000000000011 28.333,9.46500000000015 C27.976,9.75 27.658,10.0829999999996 27.264,10.4520000000002 Z "/>
</svg>
