<?xml version="1.0" encoding="utf-8"?>
<!-- Generator: Adobe Illustrator 18.0.0, SVG Export Plug-In . SVG Version: 6.00 Build 0)  -->
<!DOCTYPE svg PUBLIC "-//W3C//DTD SVG 1.1//EN" "http://www.w3.org/Graphics/SVG/1.1/DTD/svg11.dtd">
<svg version="1.1" id="Layer_1" xmlns="http://www.w3.org/2000/svg" xmlns:xlink="http://www.w3.org/1999/xlink" x="0px" y="0px"
	 viewBox="0 0 38 37.2" enable-background="new 0 0 38 37.2" xml:space="preserve">
<g>
	<path fill="#DF9D30" d="M11.5,12.5c2-2.8,2.3-6.8,0.4-9.4c-2.1-3-5.2-3-5.3-3C6.5,0.2,3.4,0,1.3,2.9c-1.9,2.6-1.6,6.9,0.4,9.7
		c1.6,2.2,2.8,0.2,3,5.2h0c0,0,0,0.1,0,0.6c0,0.5-0.7,12-1,15.7c-0.2,3.1,2.6,3.2,2.6,3.2c3.5,0,3-2.4,3-3.5
		c-0.2-3.7-0.6-14.9-0.7-15.4c0-0.5,0.1-0.6,0.1-0.6h0C8.7,12.7,9.9,14.8,11.5,12.5z"/>
	<path fill="#6FA54F" d="M22.5,33.7c-0.2-3.8-0.8-23.5-0.8-31.7c0-2.2-2.3-2.2-3.4-1.2c-1.3,1.2-2.3,4.5-2.4,9.8c0,4.4,0,8.2,0,8.2
		s0,0.8,0.6,1.2c1,0.6,1.6,0.9,1.6,1.5c0,0.1,0,0.3,0,0.6c-0.2,3.9-0.4,8.9-0.7,11.5c-0.2,1.6,0.4,3.5,2.7,3.5v0l0,0l0,0v0
		C22.8,37.1,22.5,34.7,22.5,33.7z"/>
	<path fill="#C81668" d="M37.5,9.1c-0.5-0.4-4.6-2.7-5.1-3l-0.1-4.9c0-0.7-0.4-1.2-1.1-1.2c-0.7,0-1.1,0.5-1.1,1.1L30,8.8l0,0
		c0,0,0,0,0,0l0,0.5c0,0.3-0.2,0.7-0.5,0.9c-0.4,0.2-0.8,0.1-1.2-0.2c-0.9-0.7-2-2-2-2c-0.3-0.2-0.9-0.6-1.6,0
		c-0.8,0.6-0.1,1.6,0.4,2.4c0.4,0.5,4.5,6.1,4.5,6.1s0,0.1,0.1,0.2l0,0c0,0,0,0,0,0c0.1,0.1,0.2,0.1,0.3,0.2
		c0.8,0.6,1.4,1.3,1.5,2.2c0,0.1,0,0.6,0,1.1c0,0.5-0.2,10-0.4,13.6c-0.1,1,1.1,3.1,3.1,3.3v0l0,0l0,0v0c3-0.2,2.4-2.3,2.4-3.3
		c-0.2-3.6-0.9-13.1-0.9-13.6c0-0.4-0.1-0.9-0.1-1.1c0-1.1,0.8-1.7,1.9-2.3l-0.1-0.1c0,0,0,0,0,0l0.9-6.6C38,10.2,38.1,9.6,37.5,9.1
		z"/>
</g>
</svg>
