<?xml version="1.0" encoding="utf-8"?>
<!DOCTYPE svg PUBLIC "-//W3C//DTD SVG 1.1//EN" "http://www.w3.org/Graphics/SVG/1.1/DTD/svg11.dtd">
<svg version="1.1" baseProfile="full"
 xmlns="http://www.w3.org/2000/svg"
 xmlns:xlink="http://www.w3.org/1999/xlink"
 xmlns:ev="http://www.w3.org/2001/xml-events" 
  height="45px" 
  width="27px" 
>
<path fill="rgb( 96, 95, 95 )"
 d="M26.2239999999999,27.7219999999998 C26.2239999999999,20.4320000000007 26.229,13.1440000000002 26.2180000000001,5.85599999999977 C26.2159999999999,4.34300000000076 25.75,2.98899999999958 24.704,1.85900000000038 C23.5239999999999,0.58300000000054 22.0440000000001,0.01800000000003 20.3340000000001,0.01399999999921 C15.76,0.0059999999994 11.1849999999999,0 6.6099999999999,0.01100000000042 C5.93399999999997,0.01399999999921 5.24199999999996,0.03800000000047 4.58500000000004,0.18000000000029 C1.97699999999998,0.74300000000039 0.18899999999996,3.04999999999927 0.17999999999995,5.8739999999998 C0.16300000000001,11.2600000000002 0.17499999999995,16.6470000000008 0.17499999999995,22.0319999999992 C0.17499999999995,27.384 0.16800000000001,32.7379999999994 0.178,38.0879999999997 C0.18499999999995,41.5210000000006 2.68200000000002,43.9860000000008 6.11500000000001,43.9860000000008 C10.6559999999999,43.9860000000008 15.1959999999999,44.0079999999998 19.7370000000001,43.9789999999994 C20.5930000000001,43.9750000000004 21.4970000000001,43.9339999999993 22.296,43.6640000000007 C24.788,42.8189999999995 26.204,40.7639999999992 26.2190000000001,38.1219999999994 C26.2380000000001,34.6540000000005 26.2239999999999,31.1880000000001 26.2239999999999,27.7219999999998 ZM10.8219999999999,3.19700000000012 C12.383,3.1919999999991 13.943,3.19399999999951 15.5039999999999,3.20199999999932 C16.154,3.20600000000013 16.502,3.50400000000081 16.5029999999999,4.02299999999923 C16.5050000000001,4.5669999999991 16.1289999999999,4.90099999999984 15.491,4.90500000000065 C14.7270000000001,4.91100000000006 13.9639999999999,4.90699999999924 13.2,4.90699999999924 C12.403,4.90699999999924 11.606,4.91200000000026 10.809,4.90500000000065 C10.248,4.89999999999964 9.89100000000008,4.55199999999968 9.89400000000001,4.04000000000087 C9.89699999999993,3.52299999999923 10.241,3.19800000000032 10.8219999999999,3.19700000000012 ZM13.242,40.8050000000003 C12.251,40.8029999999999 11.5229999999999,40.0889999999999 11.5260000000001,39.1209999999992 C11.528,38.1610000000001 12.239,37.4590000000007 13.2059999999999,37.4609999999993 C14.172,37.4639999999999 14.8789999999999,38.1980000000003 14.8720000000001,39.1949999999997 C14.866,40.0789999999997 14.1289999999999,40.8060000000005 13.242,40.8050000000003 ZM23.1199999999999,34.3019999999997 C23.1199999999999,34.3019999999997 3.27999999999997,34.3019999999997 3.27999999999997,34.3019999999997 C3.27999999999997,34.3019999999997 3.27999999999997,7.95499999999993 3.27999999999997,7.95499999999993 C3.27999999999997,7.95499999999993 23.1199999999999,7.95499999999993 23.1199999999999,7.95499999999993 C23.1199999999999,7.95499999999993 23.1199999999999,34.3019999999997 23.1199999999999,34.3019999999997 Z "/>
</svg>
