<?xml version="1.0" encoding="utf-8"?>
<!DOCTYPE svg PUBLIC "-//W3C//DTD SVG 1.1//EN" "http://www.w3.org/Graphics/SVG/1.1/DTD/svg11.dtd">
<svg version="1.1" baseProfile="full"
 xmlns="http://www.w3.org/2000/svg"
 xmlns:xlink="http://www.w3.org/1999/xlink"
 xmlns:ev="http://www.w3.org/2001/xml-events" 
  height="46px" 
  width="46px" 
>
<path fill="rgb( 148, 117, 205 )"
 d="M23,0.0010000000002 C10.298,0.0010000000002 0,10.2970000000005 0,22.9989999999998 C0,35.7019999999993 10.298,45.9989999999998 23,45.9989999999998 C35.702,45.9989999999998 46,35.7019999999993 46,22.9989999999998 C46,10.2970000000005 35.702,0.0010000000002 23,0.0010000000002 ZM34.57,25.0799999999999 C34.571,25.4590000000007 34.423,25.8169999999991 34.155,26.0840000000007 C33.887,26.3520000000008 33.531,26.4989999999998 33.152,26.4979999999996 C33.152,26.4979999999996 26.499,26.4979999999996 26.499,26.4979999999996 C26.499,26.4979999999996 26.499,33.1530000000002 26.499,33.1530000000002 C26.5,33.9110000000001 25.839,34.5709999999999 25.081,34.5699999999997 C25.081,34.5699999999997 20.919,34.5699999999997 20.919,34.5699999999997 C20.54,34.5709999999999 20.184,34.4240000000009 19.916,34.1550000000007 C19.648,33.8860000000004 19.501,33.5319999999992 19.501,33.1530000000002 C19.501,33.1530000000002 19.501,26.4979999999996 19.501,26.4979999999996 C19.501,26.4979999999996 12.848,26.4979999999996 12.848,26.4979999999996 C12.09,26.5 11.429,25.8389999999999 11.43,25.0799999999999 C11.43,25.0799999999999 11.43,20.9189999999999 11.43,20.9189999999999 C11.429,20.5390000000007 11.577,20.1839999999993 11.845,19.9159999999993 C12.113,19.6479999999992 12.469,19.5010000000002 12.848,19.5020000000004 C12.848,19.5020000000004 19.501,19.5020000000004 19.501,19.5020000000004 C19.501,19.5020000000004 19.501,12.8469999999998 19.501,12.8469999999998 C19.5,12.0900000000001 20.161,11.4279999999999 20.919,11.4300000000003 C20.919,11.4300000000003 25.081,11.4300000000003 25.081,11.4300000000003 C25.46,11.4279999999999 25.816,11.5769999999993 26.084,11.8449999999993 C26.352,12.1129999999994 26.499,12.4680000000008 26.499,12.8469999999998 C26.499,12.8469999999998 26.499,19.5010000000002 26.499,19.5010000000002 C26.499,19.5010000000002 33.152,19.5010000000002 33.152,19.5010000000002 C33.91,19.5 34.571,20.1610000000001 34.57,20.9189999999999 C34.57,20.9189999999999 34.57,25.0799999999999 34.57,25.0799999999999 Z "/>
</svg>
