<?xml version="1.0" encoding="utf-8"?>
<!DOCTYPE svg PUBLIC "-//W3C//DTD SVG 1.1//EN" "http://www.w3.org/Graphics/SVG/1.1/DTD/svg11.dtd">
<svg version="1.1" baseProfile="full"
 xmlns="http://www.w3.org/2000/svg"
 xmlns:xlink="http://www.w3.org/1999/xlink"
 xmlns:ev="http://www.w3.org/2001/xml-events" 
  height="67px" 
  width="67px" 
>
<path fill="rgb( 188, 188, 188 )"
 d="M37.2,34.9830000000002 C37.3199999999999,34.9499999999998 37.4559999999999,34.9690000000001 37.557,35.0379999999996 C37.6569999999999,35.1090000000004 37.723,35.2179999999998 37.723,35.335 C37.723,35.335 37.7270000000001,39.5659999999998 37.7270000000001,39.5659999999998 C37.7270000000001,39.6629999999996 37.684,39.8249999999998 37.6130000000001,39.8940000000002 C37.538,39.9660000000003 37.4259999999999,40.0110000000004 37.319,40.0110000000004 C37.2529999999999,40.0110000000004 37.1700000000001,39.9899999999998 37.1120000000001,39.9610000000002 C37.1120000000001,39.9610000000002 33.7909999999999,38.1610000000001 33.7909999999999,38.1610000000001 C33.7280000000001,38.1279999999997 33.665,38.0929999999998 33.6030000000001,38.058 C33.5640000000001,38.0360000000001 33.5350000000001,38.0100000000002 33.502,37.9849999999997 C33.491,37.9930000000004 33.479,38.0039999999999 33.47,38.0100000000002 C33.4010000000001,38.0550000000003 33.327,38.0959999999995 33.2529999999999,38.1379999999999 C33.2529999999999,38.1379999999999 32.258,38.6769999999997 32.258,38.6769999999997 C32.258,38.6769999999997 34.1659999999999,36.6099999999997 34.1659999999999,36.6099999999997 C34.1659999999999,36.6099999999997 37.1020000000001,35.0200000000004 37.1020000000001,35.0200000000004 C37.126,35.0079999999998 37.175,34.9899999999998 37.2,34.9830000000002 ZM33.5,67 C25.665,67 18.4639999999999,64.3029999999999 12.758,59.7969999999996 C12.758,59.7969999999996 21.5809999999999,50.2399999999998 21.5809999999999,50.2399999999998 C21.5809999999999,50.2399999999998 48.5150000000001,50.2399999999998 48.5150000000001,50.2399999999998 C48.5150000000001,50.2399999999998 47.627,38.7560000000003 47.578,37.8760000000002 C47.498,36.4229999999998 42.403,33.5720000000001 37.5540000000001,32.9409999999998 C37.5540000000001,32.9409999999998 58.0329999999999,10.7600000000002 58.0329999999999,10.7600000000002 C58.0329999999999,10.7600000000002 56.0070000000001,8.88900000000012 56.0070000000001,8.88900000000012 C56.0070000000001,8.88900000000012 10.663,57.9989999999998 10.663,57.9989999999998 C4.10500000000002,51.884 0,43.1729999999998 0,33.5 C0,14.9979999999996 14.999,0 33.5,0 C52.002,0 67,14.9979999999996 67,33.5 C67,52.0010000000002 52.002,67 33.5,67 ZM19.6859999999999,37.8760000000002 C19.6210000000001,38.4880000000003 19.2090000000001,42.7370000000001 18.886,46.0860000000002 C18.886,46.0860000000002 31.135,32.8180000000002 31.135,32.8180000000002 C25.921,32.9849999999997 19.8630000000001,36.2129999999997 19.6859999999999,37.8760000000002 ZM40.165,19.5870000000004 C39.893,16.2759999999998 38.2619999999999,12.7610000000004 33.5599999999999,12.7610000000004 C28.6869999999999,12.7610000000004 27.0350000000001,16.2560000000003 26.818,19.5910000000003 C26.665,21.9300000000003 27.2180000000001,24.0280000000002 27.8589999999999,25.4790000000003 C29.328,28.7979999999998 31.3140000000001,29.8289999999997 33.5599999999999,29.8289999999997 C33.681,29.8289999999997 33.8,29.8109999999997 33.9200000000001,29.8029999999999 C33.9200000000001,29.8029999999999 39.931,23.2929999999997 39.931,23.2929999999997 C40.1559999999999,22.2020000000002 40.2760000000001,20.9380000000001 40.165,19.5870000000004 Z "/>
</svg>
