<?xml version="1.0" encoding="utf-8"?>
<!DOCTYPE svg PUBLIC "-//W3C//DTD SVG 1.1//EN" "http://www.w3.org/Graphics/SVG/1.1/DTD/svg11.dtd">
<svg version="1.1" baseProfile="full"
 xmlns="http://www.w3.org/2000/svg"
 xmlns:xlink="http://www.w3.org/1999/xlink"
 xmlns:ev="http://www.w3.org/2001/xml-events" 
  height="19px" 
  width="24px" 
>
<path fill="rgb( 164, 175, 180 )"
 d="M23.763,4.56500000000005 C23.763,4.56500000000005 23.533,2.82500000000005 22.824,2.05700000000002 C21.924,1.05500000000006 20.917,1.048 20.455,0.99099999999999 C17.145,0.73299999999995 12.181,0.73299999999995 12.181,0.73299999999995 C12.181,0.73299999999995 12.17,0.73299999999995 12.17,0.73299999999995 C12.17,0.73299999999995 7.20600000000002,0.73299999999995 3.89800000000002,0.99099999999999 C3.43600000000004,1.048 2.42899999999997,1.05500000000006 1.529,2.05700000000002 C0.82000000000005,2.82500000000005 0.58900000000006,4.56500000000005 0.58900000000006,4.56500000000005 C0.58900000000006,4.56500000000005 0.35199999999998,6.60899999999992 0.35199999999998,8.65200000000004 C0.35199999999998,8.65200000000004 0.35199999999998,10.567 0.35199999999998,10.567 C0.35199999999998,12.6099999999999 0.58900000000006,14.653 0.58900000000006,14.653 C0.58900000000006,14.653 0.82000000000005,16.393 1.529,17.1579999999999 C2.42899999999997,18.162 3.60900000000004,18.1320000000001 4.13599999999997,18.2380000000001 C6.02700000000004,18.432 12.176,18.491 12.176,18.491 C12.176,18.491 17.145,18.482 20.455,18.2280000000001 C20.917,18.1690000000001 21.924,18.163 22.824,17.1590000000001 C23.532,16.393 23.763,14.654 23.763,14.654 C23.763,14.654 24,12.6099999999999 24,10.568 C24,10.568 24,8.65200000000004 24,8.65200000000004 C24,6.60899999999992 23.763,4.56500000000005 23.763,4.56500000000005 ZM9.22299999999996,14.0519999999999 C9.22299999999996,14.0519999999999 9.22299999999996,5.173 9.22299999999996,5.173 C9.22299999999996,5.173 16.615,9.61200000000008 16.615,9.61200000000008 C16.615,9.61200000000008 9.22299999999996,14.0519999999999 9.22299999999996,14.0519999999999 Z "/>
</svg>
