<?xml version="1.0" encoding="utf-8"?>
<!DOCTYPE svg PUBLIC "-//W3C//DTD SVG 1.1//EN" "http://www.w3.org/Graphics/SVG/1.1/DTD/svg11.dtd">
<svg version="1.1" baseProfile="full"
 xmlns="http://www.w3.org/2000/svg"
 xmlns:xlink="http://www.w3.org/1999/xlink"
 xmlns:ev="http://www.w3.org/2001/xml-events" 
  height="51px" 
  width="82px" 
>
<path fill="rgb( 96, 95, 95 )"
 d="M65.915,36.7540000000008 C65.037,36.9689999999991 64.258,37.1479999999992 63.489,37.3580000000002 C63.287,37.4130000000005 63.067,37.5300000000007 62.935,37.6820000000007 C57.834,43.5169999999998 51.155,46.6970000000001 43.561,48.1350000000002 C33.235,50.0849999999991 23.331,48.9040000000005 14.141,43.7060000000001 C9.82999999999998,41.2669999999998 6.24900000000002,38.0339999999997 4.09100000000001,33.6100000000006 C0.423,26.0889999999999 1.75200000000001,19.1460000000006 7.20299999999997,12.9150000000009 C11.491,8.01900000000023 17.128,5.10900000000038 23.469,3.51499999999942 C34.356,0.77900000000045 44.895,1.62900000000081 54.854,6.92100000000028 C59.895,9.59900000000016 63.858,13.3449999999993 66.213,18.5329999999994 C66.331,18.7900000000009 66.768,19.0630000000001 67.063,19.0720000000001 C69.332,19.1229999999996 70.714,20.3600000000006 71.798,22.1329999999998 C74.521,26.5820000000003 77.286,31.0069999999996 80.045,35.4359999999997 C80.311,35.8610000000008 80.697,36.2139999999999 80.958,36.6399999999994 C81.061,36.8070000000007 80.971,37.0849999999991 80.967,37.3109999999997 C80.74,37.268 80.425,37.2999999999993 80.297,37.1659999999993 C79.883,36.7340000000004 79.489,36.2700000000004 79.174,35.7659999999996 C76.478,31.4449999999997 73.758,27.1399999999994 71.135,22.7749999999996 C70.038,20.9480000000003 68.68,19.7710000000006 66.362,19.9400000000005 C65.496,20.0040000000008 64.619,19.9860000000008 63.751,19.9449999999997 C63.207,19.9249999999993 62.993,20.1720000000005 62.924,20.6319999999996 C62.916,20.6949999999997 62.906,20.7559999999994 62.894,20.8150000000005 C62.595,22.4089999999997 62.597,22.4089999999997 64.039,23.2860000000001 C65.402,24.1149999999998 66.774,24.9330000000009 68.118,25.7919999999995 C68.47,26.0159999999996 69.177,26.1219999999994 68.812,26.7620000000006 C68.754,26.8610000000008 67.998,26.7119999999995 67.668,26.5149999999994 C64.153,24.4310000000005 60.666,22.2990000000009 57.148,20.2160000000003 C56.707,19.9570000000003 56.128,19.7960000000003 55.613,19.7950000000001 C54.879,19.7929999999997 54.203,20.0959999999995 53.958,20.8580000000002 C53.707,21.6370000000006 53.896,22.3449999999993 54.541,22.8919999999998 C56.501,24.5560000000005 58.471,26.2060000000001 60.437,27.8649999999998 C61.022,28.3559999999998 61.558,28.9120000000003 62.189,29.3359999999993 C64.561,30.9330000000009 65.941,33.1470000000008 66.556,35.8259999999991 C67.135,38.3400000000001 68.919,39.482 71.359,39.9279999999999 C71.644,39.9809999999998 71.951,39.9770000000008 72.21,40.0859999999993 C72.404,40.1669999999995 72.536,40.3889999999992 72.695,40.5470000000005 C72.507,40.6740000000009 72.324,40.893 72.126,40.9069999999992 C69.832,41.0830000000005 66.861,39.2279999999992 66.051,37.1409999999996 C66.007,37.0280000000002 65.972,36.9150000000009 65.915,36.7540000000008 M65.336,19.0390000000007 C64.664,17.8700000000008 64.169,16.8590000000004 63.541,15.9349999999995 C60.429,11.348 56.043,8.25300000000061 50.889,6.15200000000004 C42.24,2.62199999999939 33.317,2.16500000000087 24.264,4.35699999999997 C18.278,5.80600000000049 12.93,8.48300000000017 8.64699999999999,12.8889999999992 C2.34300000000002,19.3770000000004 1.35599999999999,27.7849999999999 6.07799999999997,34.9390000000003 C9.26799999999997,39.7710000000006 13.894,42.9200000000001 19.281,45.0669999999991 C26.856,48.0810000000001 34.718,48.6849999999995 42.731,47.2649999999994 C49.264,46.1080000000002 55.164,43.5910000000003 60.064,39.1399999999994 C60.68,38.5769999999993 61.235,37.9539999999997 61.843,37.3330000000005 C61.055,36.9159999999993 60.398,36.5859999999993 59.761,36.2279999999992 C59.122,35.8649999999998 58.498,35.4750000000004 57.871,35.0930000000008 C56.054,33.9770000000008 55.914,32.7700000000004 57.474,31.3080000000009 C56.276,30.1399999999994 54.869,29.0159999999996 55.986,27.0509999999995 C55.73,26.9770000000008 55.555,26.9140000000007 55.374,26.8790000000008 C52.948,26.3950000000004 50.527,25.8940000000002 48.091,25.4519999999993 C47.359,25.3209999999999 47.211,25.0110000000004 47.345,24.3590000000004 C47.994,21.2129999999997 48.621,18.0640000000003 49.239,14.9120000000003 C49.354,14.3250000000007 49.636,14.1479999999992 50.249,14.2669999999998 C54.483,15.0830000000005 58.721,15.8790000000008 62.96,16.6710000000003 C63.532,16.7749999999996 63.72,17.0419999999995 63.574,17.5889999999999 C63.452,18.0529999999999 63.39,18.5329999999994 63.295,19.0390000000007 C63.295,19.0390000000007 65.336,19.0390000000007 65.336,19.0390000000007 ZM56.93,26.1740000000009 C55.741,25.1440000000002 54.683,24.3299999999999 53.758,23.3950000000004 C52.957,22.5840000000007 52.687,21.5419999999995 53.14,20.4549999999999 C53.571,19.4150000000009 54.486,18.9279999999999 55.586,18.9359999999997 C56.229,18.9419999999991 56.932,19.1190000000006 57.5,19.4159999999993 C58.91,20.1509999999998 60.258,21.0010000000002 61.768,21.8819999999996 C62.045,20.5010000000002 62.331,19.2340000000004 62.527,17.9519999999993 C62.552,17.7870000000003 62.146,17.4300000000003 61.894,17.3809999999994 C59.31,16.8529999999992 56.717,16.3719999999994 54.125,15.8829999999998 C52.814,15.6350000000002 51.499,15.4030000000002 50.096,15.1460000000006 C49.505,18.1679999999997 48.946,21.0720000000001 48.367,23.9709999999995 C48.248,24.5689999999995 48.639,24.6389999999992 49.074,24.7180000000008 C51.596,25.1820000000007 54.115,25.6509999999998 56.93,26.1740000000009 M57.968,27.3719999999994 C56.818,27.3960000000006 56.25,28.3950000000004 56.94,29.1029999999992 C57.937,30.1270000000004 59.104,31.018 60.297,31.8289999999997 C61.07,32.3580000000002 62.005,32.6720000000005 62.892,33.0229999999992 C63.11,33.1049999999996 63.563,33.0480000000007 63.662,32.8979999999992 C63.807,32.6859999999997 63.769,32.3259999999991 63.73,32.0400000000009 C63.706,31.8819999999996 63.545,31.7150000000001 63.407,31.5990000000002 C61.921,30.3160000000007 60.439,29.0259999999998 58.922,27.7790000000005 C58.624,27.5349999999999 58.181,27.4580000000005 57.968,27.3719999999994 M64.773,33.5640000000003 C63.543,34.3909999999996 62.389,34.0990000000002 61.257,33.5409999999993 C60.569,33.2029999999995 59.887,32.8520000000008 59.238,32.4519999999993 C58.605,32.0609999999997 58.01,32.1290000000008 57.626,32.6689999999999 C57.195,33.2749999999996 57.7,33.7399999999998 58.187,34.0490000000009 C59.234,34.7099999999991 60.301,35.3580000000002 61.402,35.9320000000007 C62.817,36.6669999999995 64.171,36.3389999999999 65.55,35.6090000000004 C65.276,34.8919999999998 65.035,34.2549999999992 64.773,33.5640000000003 M43.596,24.0429999999997 C43.502,29.893 42.154,34.5069999999996 39.516,38.7600000000002 C39.058,39.5010000000002 38.187,39.7019999999993 37.525,39.3099999999995 C36.86,38.9159999999993 36.705,38.1260000000002 37.183,37.3420000000006 C39.219,33.9860000000008 40.441,30.3870000000006 40.73,26.4969999999994 C41.059,22.0949999999993 39.953,18.0480000000007 37.566,14.3089999999993 C37.463,14.1499999999996 37.35,13.9969999999994 37.249,13.8379999999997 C36.719,12.9989999999998 36.816,12.2080000000005 37.501,11.7849999999999 C38.201,11.3510000000006 39.023,11.5640000000003 39.563,12.3610000000008 C41.004,14.482 42.17,16.7399999999998 42.745,19.2240000000002 C43.178,21.0930000000008 43.417,23.0100000000002 43.596,24.0429999999997 M36.726,26.7600000000002 C36.681,29.0339999999997 35.512,32.6329999999998 33.334,35.9300000000003 C32.839,36.6769999999997 32.011,36.875 31.339,36.482 C30.634,36.0669999999991 30.496,35.2700000000004 31.036,34.4439999999995 C33.013,31.4130000000005 34.014,28.1299999999992 33.899,24.5310000000009 C33.806,21.6000000000004 32.792,18.9959999999992 31.049,16.6329999999998 C30.636,16.0689999999995 30.47,15.4169999999995 30.987,14.9269999999997 C31.319,14.6129999999994 31.949,14.4269999999997 32.421,14.4660000000003 C32.776,14.4920000000002 33.175,14.9099999999999 33.418,15.2479999999996 C35.56,18.2019999999993 36.73,21.4709999999995 36.726,26.7600000000002 M29.66,24.902 C29.627,28.3310000000001 28.427,30.7950000000001 26.556,32.9920000000002 C25.932,33.7260000000006 25.056,33.8410000000003 24.438,33.3389999999999 C23.817,32.8340000000007 23.817,32.0259999999998 24.446,31.2639999999992 C25.818,29.6039999999994 26.808,27.7909999999993 26.929,25.6090000000004 C27.038,23.6290000000008 26.294,21.9599999999991 25.045,20.4549999999999 C24.823,20.1880000000001 24.571,19.9429999999993 24.351,19.6749999999993 C23.811,19.0210000000006 23.838,18.2520000000004 24.407,17.7469999999994 C24.98,17.2360000000008 25.777,17.2540000000008 26.389,17.8780000000006 C28.464,19.9869999999992 29.754,22.4259999999995 29.66,24.902 M22.976,25.4609999999993 C22.887,27.3150000000005 22.122,28.9899999999998 20.824,30.4439999999995 C20.227,31.1139999999996 19.373,31.2000000000007 18.776,30.7150000000001 C18.182,30.2340000000004 18.156,29.4210000000003 18.712,28.7160000000003 C18.928,28.4439999999995 19.159,28.1839999999993 19.347,27.893 C20.577,26.0079999999998 20.449,24.2939999999999 18.959,22.5879999999997 C18.854,22.4680000000008 18.737,22.3590000000004 18.642,22.2350000000006 C18.151,21.598 18.133,20.9390000000003 18.732,20.3940000000002 C19.332,19.8439999999991 20.006,19.8919999999998 20.639,20.4099999999999 C21.925,21.4660000000003 22.98,23.7060000000001 22.976,25.4609999999993  "/>
</svg>
